<svg id="visual" viewBox="0 0 900 600" width="900" height="600" xmlns="http://www.w3.org/2000/svg" xmlns:xlink="http://www.w3.org/1999/xlink" version="1.1"><path d="M0 115L300 67L600 121L900 139L900 0L600 0L300 0L0 0Z" fill="#0088cc"></path><path d="M0 361L300 259L600 361L900 223L900 137L600 119L300 65L0 113Z" fill="#027ab9"></path><path d="M0 397L300 361L600 451L900 301L900 221L600 359L300 257L0 359Z" fill="#036da6"></path><path d="M0 487L300 493L600 541L900 505L900 299L600 449L300 359L0 395Z" fill="#036094"></path><path d="M0 601L300 601L600 601L900 601L900 503L600 539L300 491L0 485Z" fill="#035482"></path></svg>